<?xml version="1.0" encoding="UTF-8"?>
<svg xmlns="http://www.w3.org/2000/svg" width="1200" height="820" viewBox="0 0 1200 820" font-family="'Helvetica Neue', Arial, 'PingFang SC', 'Microsoft YaHei', sans-serif">
  <defs>
    <filter id="rowShadow" x="-5%" y="-12%" width="112%" height="150%">
      <feDropShadow dx="0" dy="2" stdDeviation="3" flood-color="#546e7a" flood-opacity="0.22"/>
    </filter>
    <filter id="badgeShadow" x="-25%" y="-50%" width="150%" height="200%">
      <feDropShadow dx="0" dy="1" stdDeviation="1.5" flood-color="#000000" flood-opacity="0.25"/>
    </filter>
    <marker id="redArrow" viewBox="0 0 10 10" refX="10" refY="5" markerWidth="6.5" markerHeight="6.5" orient="auto">
      <path d="M0,0 L10,5 L0,10 z" fill="#e53935"/>
    </marker>
  </defs>

  <rect x="0" y="0" width="1200" height="820" fill="#ffffff"/>

  <!-- ============ Divider ============ -->
  <line x1="600" y1="16" x2="600" y2="736" stroke="#90a4ae" stroke-width="3"/>

  <!-- ============ Title bars ============ -->
  <g>
    <rect x="20" y="16" width="570" height="44" rx="8" fill="#ffebee" stroke="#ef9a9a" stroke-width="1.5" filter="url(#rowShadow)"/>
    <text x="305" y="44" font-size="16" font-weight="bold" fill="#c62828" text-anchor="middle">改造前 ❌  越界依赖</text>
  </g>
  <g>
    <rect x="610" y="16" width="570" height="44" rx="8" fill="#e8f5e9" stroke="#a5d6a7" stroke-width="1.5" filter="url(#rowShadow)"/>
    <text x="895" y="44" font-size="16" font-weight="bold" fill="#2e7d32" text-anchor="middle">改造后 ✅  职责隔离</text>
  </g>

  <!-- ============ LEFT ROWS (改造前) x0=20 ============ -->

  <!-- Row 1 discovery y=72 -->
  <g>
    <rect x="20" y="72" width="570" height="88" rx="6" fill="#e3f2fd" stroke="#90caf9" stroke-width="1.5" filter="url(#rowShadow)"/>
    <rect x="28" y="80" width="84" height="72" rx="5" fill="#ffffff" fill-opacity="0.55"/>
    <g stroke="#000000" stroke-opacity="0.06">
      <line x1="115" y1="82" x2="115" y2="150"/>
      <line x1="200" y1="82" x2="200" y2="150"/>
      <line x1="220" y1="82" x2="220" y2="150"/>
      <line x1="365" y1="82" x2="365" y2="150"/>
      <line x1="385" y1="82" x2="385" y2="150"/>
      <line x1="490" y1="82" x2="490" y2="150"/>
    </g>
    <text x="37" y="116" font-size="16">🔍</text>
    <text x="61" y="114" font-size="13" font-weight="bold" fill="#37474f">问题挖掘</text>
    <text x="61" y="130" font-size="10" fill="#78909c">discovery</text>
    <text x="123" y="99" font-size="9" fill="#78909c">输入</text>
    <text x="123" y="120" font-size="11" fill="#37474f">用户意图</text>
    <text x="210" y="116" font-size="14" fill="#90a4ae" text-anchor="middle">→</text>
    <text x="228" y="99" font-size="9" fill="#78909c">职责</text>
    <text x="228" y="118" font-size="12" font-weight="bold" fill="#37474f">问题挖掘</text>
    <text x="228" y="134" font-size="9.5" fill="#78909c">辅导模式 · 7 步工作流</text>
    <text x="375" y="116" font-size="14" fill="#90a4ae" text-anchor="middle">→</text>
    <text x="393" y="99" font-size="9" fill="#78909c">输出</text>
    <text x="393" y="118" font-size="11" fill="#37474f">discovery.md</text>
    <text x="393" y="134" font-size="10" fill="#546e7a">问题清单</text>
  </g>

  <!-- Row 2 spec y=168 -->
  <g>
    <rect x="20" y="168" width="570" height="88" rx="6" fill="#e3f2fd" stroke="#90caf9" stroke-width="1.5" filter="url(#rowShadow)"/>
    <rect x="28" y="176" width="84" height="72" rx="5" fill="#ffffff" fill-opacity="0.55"/>
    <g stroke="#000000" stroke-opacity="0.06">
      <line x1="115" y1="178" x2="115" y2="246"/>
      <line x1="200" y1="178" x2="200" y2="246"/>
      <line x1="220" y1="178" x2="220" y2="246"/>
      <line x1="365" y1="178" x2="365" y2="246"/>
      <line x1="385" y1="178" x2="385" y2="246"/>
      <line x1="490" y1="178" x2="490" y2="246"/>
    </g>
    <text x="37" y="212" font-size="16">📋</text>
    <text x="61" y="210" font-size="13" font-weight="bold" fill="#37474f">需求定义</text>
    <text x="61" y="226" font-size="10" fill="#78909c">spec</text>
    <text x="123" y="195" font-size="9" fill="#78909c">输入</text>
    <text x="123" y="216" font-size="11" fill="#37474f">discovery.md</text>
    <text x="210" y="212" font-size="14" fill="#90a4ae" text-anchor="middle">→</text>
    <text x="228" y="195" font-size="9" fill="#78909c">职责</text>
    <text x="228" y="214" font-size="12" font-weight="bold" fill="#37474f">需求定义</text>
    <text x="228" y="230" font-size="9.5" fill="#78909c">FR · NFR · EC</text>
    <text x="375" y="212" font-size="14" fill="#90a4ae" text-anchor="middle">→</text>
    <text x="393" y="195" font-size="9" fill="#78909c">输出</text>
    <text x="393" y="214" font-size="11" fill="#37474f">spec.md</text>
  </g>

  <!-- Row 3 plan y=264 (RED problem) -->
  <g>
    <rect x="20" y="264" width="570" height="88" rx="6" fill="#ffebee" stroke="#ef9a9a" stroke-width="1.5" filter="url(#rowShadow)"/>
    <rect x="28" y="272" width="84" height="72" rx="5" fill="#ffffff" fill-opacity="0.55"/>
    <g stroke="#000000" stroke-opacity="0.06">
      <line x1="115" y1="274" x2="115" y2="342"/>
      <line x1="200" y1="274" x2="200" y2="342"/>
      <line x1="220" y1="274" x2="220" y2="342"/>
      <line x1="365" y1="274" x2="365" y2="342"/>
      <line x1="385" y1="274" x2="385" y2="342"/>
      <line x1="490" y1="274" x2="490" y2="342"/>
    </g>
    <text x="37" y="308" font-size="16">📐</text>
    <text x="61" y="306" font-size="13" font-weight="bold" fill="#37474f">技术设计</text>
    <text x="61" y="322" font-size="10" fill="#78909c">plan</text>
    <text x="123" y="291" font-size="9" fill="#78909c">输入</text>
    <text x="123" y="312" font-size="11" fill="#37474f">spec.md</text>
    <text x="210" y="308" font-size="14" fill="#90a4ae" text-anchor="middle">→</text>
    <text x="228" y="291" font-size="9" fill="#78909c">职责</text>
    <text x="228" y="310" font-size="12" font-weight="bold" fill="#37474f">技术设计</text>
    <text x="228" y="326" font-size="9.5" font-weight="bold" fill="#d32f2f">代笔审查§5.8 · 代笔验证§5.9</text>
    <text x="375" y="308" font-size="14" fill="#90a4ae" text-anchor="middle">→</text>
    <text x="393" y="291" font-size="9" fill="#78909c">输出</text>
    <text x="393" y="310" font-size="11" fill="#37474f">plan.md</text>
    <text x="393" y="326" font-size="10" fill="#546e7a">+ ADR</text>
    <rect x="507" y="297" width="36" height="22" rx="11" fill="#e53935" filter="url(#badgeShadow)"/>
    <text x="525" y="312" font-size="10" font-weight="bold" fill="#ffffff" text-anchor="middle">越界</text>
  </g>

  <!-- Row 4 tasks y=360 -->
  <g>
    <rect x="20" y="360" width="570" height="88" rx="6" fill="#e3f2fd" stroke="#90caf9" stroke-width="1.5" filter="url(#rowShadow)"/>
    <rect x="28" y="368" width="84" height="72" rx="5" fill="#ffffff" fill-opacity="0.55"/>
    <g stroke="#000000" stroke-opacity="0.06">
      <line x1="115" y1="370" x2="115" y2="438"/>
      <line x1="200" y1="370" x2="200" y2="438"/>
      <line x1="220" y1="370" x2="220" y2="438"/>
      <line x1="365" y1="370" x2="365" y2="438"/>
      <line x1="385" y1="370" x2="385" y2="438"/>
      <line x1="490" y1="370" x2="490" y2="438"/>
    </g>
    <text x="37" y="404" font-size="16">📊</text>
    <text x="61" y="402" font-size="13" font-weight="bold" fill="#37474f">任务排布</text>
    <text x="61" y="418" font-size="10" fill="#78909c">tasks</text>
    <text x="123" y="387" font-size="9" fill="#78909c">输入</text>
    <text x="123" y="408" font-size="11" fill="#37474f">plan.md</text>
    <text x="210" y="404" font-size="14" fill="#90a4ae" text-anchor="middle">→</text>
    <text x="228" y="387" font-size="9" fill="#78909c">职责</text>
    <text x="228" y="406" font-size="12" font-weight="bold" fill="#37474f">任务排布</text>
    <text x="228" y="422" font-size="9.5" fill="#78909c">依赖图 · 波次规划</text>
    <text x="375" y="404" font-size="14" fill="#90a4ae" text-anchor="middle">→</text>
    <text x="393" y="387" font-size="9" fill="#78909c">输出</text>
    <text x="393" y="406" font-size="11" fill="#37474f">tasks.md</text>
    <text x="393" y="422" font-size="10" fill="#546e7a">+ tasks.json</text>
  </g>

  <!-- Row 5 build y=456 -->
  <g>
    <rect x="20" y="456" width="570" height="88" rx="6" fill="#e3f2fd" stroke="#90caf9" stroke-width="1.5" filter="url(#rowShadow)"/>
    <rect x="28" y="464" width="84" height="72" rx="5" fill="#ffffff" fill-opacity="0.55"/>
    <g stroke="#000000" stroke-opacity="0.06">
      <line x1="115" y1="466" x2="115" y2="534"/>
      <line x1="200" y1="466" x2="200" y2="534"/>
      <line x1="220" y1="466" x2="220" y2="534"/>
      <line x1="365" y1="466" x2="365" y2="534"/>
      <line x1="385" y1="466" x2="385" y2="534"/>
      <line x1="490" y1="466" x2="490" y2="534"/>
    </g>
    <text x="37" y="500" font-size="16">🔨</text>
    <text x="61" y="498" font-size="13" font-weight="bold" fill="#37474f">实施构建</text>
    <text x="61" y="514" font-size="10" fill="#78909c">build</text>
    <text x="123" y="483" font-size="9" fill="#78909c">输入</text>
    <text x="123" y="504" font-size="11" fill="#37474f">tasks.json</text>
    <text x="210" y="500" font-size="14" fill="#90a4ae" text-anchor="middle">→</text>
    <text x="228" y="483" font-size="9" fill="#78909c">职责</text>
    <text x="228" y="502" font-size="12" font-weight="bold" fill="#37474f">实施构建</text>
    <text x="228" y="518" font-size="9.5" fill="#78909c">代码/配置 · 实现决策</text>
    <text x="375" y="500" font-size="14" fill="#90a4ae" text-anchor="middle">→</text>
    <text x="393" y="483" font-size="9" fill="#78909c">输出</text>
    <text x="393" y="502" font-size="11" fill="#37474f">产物</text>
    <text x="393" y="518" font-size="10" fill="#546e7a">+ build.md</text>
  </g>

  <!-- Row 6 review y=552 (GRAY passive) -->
  <g>
    <rect x="20" y="552" width="570" height="88" rx="6" fill="#f5f5f5" stroke="#b0bec5" stroke-width="1.5" filter="url(#rowShadow)"/>
    <rect x="28" y="560" width="84" height="72" rx="5" fill="#ffffff" fill-opacity="0.55"/>
    <g stroke="#000000" stroke-opacity="0.06">
      <line x1="115" y1="562" x2="115" y2="630"/>
      <line x1="200" y1="562" x2="200" y2="630"/>
      <line x1="220" y1="562" x2="220" y2="630"/>
      <line x1="365" y1="562" x2="365" y2="630"/>
      <line x1="385" y1="562" x2="385" y2="630"/>
      <line x1="490" y1="562" x2="490" y2="630"/>
    </g>
    <text x="37" y="596" font-size="16">🔎</text>
    <text x="61" y="594" font-size="13" font-weight="bold" fill="#37474f">产物审查</text>
    <text x="61" y="610" font-size="10" fill="#78909c">review</text>
    <text x="123" y="579" font-size="9" fill="#78909c">输入</text>
    <text x="123" y="600" font-size="11" fill="#d32f2f">plan §5.8</text>
    <text x="210" y="596" font-size="14" fill="#90a4ae" text-anchor="middle">→</text>
    <text x="228" y="579" font-size="9" fill="#78909c">职责</text>
    <text x="228" y="598" font-size="12" font-weight="bold" fill="#37474f">被动审查</text>
    <text x="228" y="614" font-size="9.5" fill="#e65100">无自主策略 · 入口依赖</text>
    <text x="375" y="596" font-size="14" fill="#90a4ae" text-anchor="middle">→</text>
    <text x="393" y="579" font-size="9" fill="#78909c">输出</text>
    <text x="393" y="598" font-size="11" fill="#37474f">review.md</text>
    <text x="393" y="614" font-size="9.5" fill="#78909c">策略段 + 结果段</text>
    <rect x="489" y="585" width="72" height="22" rx="11" fill="#fb8c00" filter="url(#badgeShadow)"/>
    <text x="525" y="600" font-size="10" font-weight="bold" fill="#ffffff" text-anchor="middle">⚠️ 入口依赖</text>
  </g>

  <!-- Row 7 validate y=648 (GRAY passive) -->
  <g>
    <rect x="20" y="648" width="570" height="88" rx="6" fill="#f5f5f5" stroke="#b0bec5" stroke-width="1.5" filter="url(#rowShadow)"/>
    <rect x="28" y="656" width="84" height="72" rx="5" fill="#ffffff" fill-opacity="0.55"/>
    <g stroke="#000000" stroke-opacity="0.06">
      <line x1="115" y1="658" x2="115" y2="726"/>
      <line x1="200" y1="658" x2="200" y2="726"/>
      <line x1="220" y1="658" x2="220" y2="726"/>
      <line x1="365" y1="658" x2="365" y2="726"/>
      <line x1="385" y1="658" x2="385" y2="726"/>
      <line x1="490" y1="658" x2="490" y2="726"/>
    </g>
    <text x="37" y="692" font-size="16">✅</text>
    <text x="61" y="690" font-size="13" font-weight="bold" fill="#37474f">产物验证</text>
    <text x="61" y="706" font-size="10" fill="#78909c">validate</text>
    <text x="123" y="675" font-size="9" fill="#78909c">输入</text>
    <text x="123" y="696" font-size="11" fill="#d32f2f">plan §5.9</text>
    <text x="210" y="692" font-size="14" fill="#90a4ae" text-anchor="middle">→</text>
    <text x="228" y="675" font-size="9" fill="#78909c">职责</text>
    <text x="228" y="694" font-size="12" font-weight="bold" fill="#37474f">被动验证</text>
    <text x="228" y="710" font-size="9.5" fill="#d32f2f">33% 场景无法执行</text>
    <text x="228" y="724" font-size="9.5" fill="#d32f2f">（源：spec.md）</text>
    <text x="375" y="692" font-size="14" fill="#90a4ae" text-anchor="middle">→</text>
    <text x="393" y="675" font-size="9" fill="#78909c">输出</text>
    <text x="393" y="694" font-size="11" fill="#37474f">validate.md</text>
    <text x="393" y="710" font-size="9.5" fill="#78909c">策略段 + 结果段</text>
    <rect x="489" y="681" width="72" height="22" rx="11" fill="#fb8c00" filter="url(#badgeShadow)"/>
    <text x="525" y="696" font-size="10" font-weight="bold" fill="#ffffff" text-anchor="middle">⚠️ 入口依赖</text>
  </g>

  <!-- ============ RIGHT ROWS (改造后) x0=610 ============ -->

  <!-- Row 1 discovery y=72 -->
  <g>
    <rect x="610" y="72" width="570" height="88" rx="6" fill="#e3f2fd" stroke="#90caf9" stroke-width="1.5" filter="url(#rowShadow)"/>
    <rect x="618" y="80" width="84" height="72" rx="5" fill="#ffffff" fill-opacity="0.55"/>
    <g stroke="#000000" stroke-opacity="0.06">
      <line x1="705" y1="82" x2="705" y2="150"/>
      <line x1="790" y1="82" x2="790" y2="150"/>
      <line x1="810" y1="82" x2="810" y2="150"/>
      <line x1="955" y1="82" x2="955" y2="150"/>
      <line x1="975" y1="82" x2="975" y2="150"/>
      <line x1="1080" y1="82" x2="1080" y2="150"/>
    </g>
    <text x="627" y="116" font-size="16">🔍</text>
    <text x="651" y="114" font-size="13" font-weight="bold" fill="#37474f">问题挖掘</text>
    <text x="651" y="130" font-size="10" fill="#78909c">discovery</text>
    <text x="713" y="99" font-size="9" fill="#78909c">输入</text>
    <text x="713" y="120" font-size="11" fill="#37474f">用户意图</text>
    <text x="800" y="116" font-size="14" fill="#90a4ae" text-anchor="middle">→</text>
    <text x="818" y="99" font-size="9" fill="#78909c">职责</text>
    <text x="818" y="118" font-size="12" font-weight="bold" fill="#37474f">问题挖掘</text>
    <text x="818" y="134" font-size="9.5" fill="#78909c">辅导模式 · 7 步工作流</text>
    <text x="965" y="116" font-size="14" fill="#90a4ae" text-anchor="middle">→</text>
    <text x="983" y="99" font-size="9" fill="#78909c">输出</text>
    <text x="983" y="118" font-size="11" fill="#37474f">discovery.md</text>
    <text x="983" y="134" font-size="10" fill="#546e7a">问题清单</text>
  </g>

  <!-- Row 2 spec y=168 -->
  <g>
    <rect x="610" y="168" width="570" height="88" rx="6" fill="#e3f2fd" stroke="#90caf9" stroke-width="1.5" filter="url(#rowShadow)"/>
    <rect x="618" y="176" width="84" height="72" rx="5" fill="#ffffff" fill-opacity="0.55"/>
    <g stroke="#000000" stroke-opacity="0.06">
      <line x1="705" y1="178" x2="705" y2="246"/>
      <line x1="790" y1="178" x2="790" y2="246"/>
      <line x1="810" y1="178" x2="810" y2="246"/>
      <line x1="955" y1="178" x2="955" y2="246"/>
      <line x1="975" y1="178" x2="975" y2="246"/>
      <line x1="1080" y1="178" x2="1080" y2="246"/>
    </g>
    <text x="627" y="212" font-size="16">📋</text>
    <text x="651" y="210" font-size="13" font-weight="bold" fill="#37474f">需求定义</text>
    <text x="651" y="226" font-size="10" fill="#78909c">spec</text>
    <text x="713" y="195" font-size="9" fill="#78909c">输入</text>
    <text x="713" y="216" font-size="11" fill="#37474f">discovery.md</text>
    <text x="800" y="212" font-size="14" fill="#90a4ae" text-anchor="middle">→</text>
    <text x="818" y="195" font-size="9" fill="#78909c">职责</text>
    <text x="818" y="214" font-size="12" font-weight="bold" fill="#37474f">需求定义</text>
    <text x="818" y="230" font-size="9.5" fill="#78909c">FR · NFR · EC</text>
    <text x="965" y="212" font-size="14" fill="#90a4ae" text-anchor="middle">→</text>
    <text x="983" y="195" font-size="9" fill="#78909c">输出</text>
    <text x="983" y="214" font-size="11" fill="#37474f">spec.md</text>
  </g>

  <!-- Row 3 plan y=264 (GREEN fixed) -->
  <g>
    <rect x="610" y="264" width="570" height="88" rx="6" fill="#e8f5e9" stroke="#a5d6a7" stroke-width="1.5" filter="url(#rowShadow)"/>
    <rect x="618" y="272" width="84" height="72" rx="5" fill="#ffffff" fill-opacity="0.55"/>
    <g stroke="#000000" stroke-opacity="0.06">
      <line x1="705" y1="274" x2="705" y2="342"/>
      <line x1="790" y1="274" x2="790" y2="342"/>
      <line x1="810" y1="274" x2="810" y2="342"/>
      <line x1="955" y1="274" x2="955" y2="342"/>
      <line x1="975" y1="274" x2="975" y2="342"/>
      <line x1="1080" y1="274" x2="1080" y2="342"/>
    </g>
    <text x="627" y="308" font-size="16">📐</text>
    <text x="651" y="306" font-size="13" font-weight="bold" fill="#37474f">技术设计</text>
    <text x="651" y="322" font-size="10" fill="#78909c">plan</text>
    <text x="713" y="291" font-size="9" fill="#78909c">输入</text>
    <text x="713" y="312" font-size="11" fill="#37474f">spec.md</text>
    <text x="800" y="308" font-size="14" fill="#90a4ae" text-anchor="middle">→</text>
    <text x="818" y="291" font-size="9" fill="#78909c">职责</text>
    <text x="818" y="310" font-size="12" font-weight="bold" fill="#37474f">纯技术设计</text>
    <text x="818" y="326" font-size="9.5" fill="#2e7d32">§5.1~§5.7 架构分析/方案/ADR</text>
    <text x="965" y="308" font-size="14" fill="#90a4ae" text-anchor="middle">→</text>
    <text x="983" y="291" font-size="9" fill="#78909c">输出</text>
    <text x="983" y="310" font-size="11" fill="#37474f">plan.md</text>
    <text x="983" y="326" font-size="10" fill="#546e7a">+ ADR</text>
    <rect x="1097" y="297" width="36" height="22" rx="11" fill="#66bb6a" filter="url(#badgeShadow)"/>
    <text x="1115" y="312" font-size="10" font-weight="bold" fill="#ffffff" text-anchor="middle">回归</text>
  </g>

  <!-- Row 4 tasks y=360 -->
  <g>
    <rect x="610" y="360" width="570" height="88" rx="6" fill="#e3f2fd" stroke="#90caf9" stroke-width="1.5" filter="url(#rowShadow)"/>
    <rect x="618" y="368" width="84" height="72" rx="5" fill="#ffffff" fill-opacity="0.55"/>
    <g stroke="#000000" stroke-opacity="0.06">
      <line x1="705" y1="370" x2="705" y2="438"/>
      <line x1="790" y1="370" x2="790" y2="438"/>
      <line x1="810" y1="370" x2="810" y2="438"/>
      <line x1="955" y1="370" x2="955" y2="438"/>
      <line x1="975" y1="370" x2="975" y2="438"/>
      <line x1="1080" y1="370" x2="1080" y2="438"/>
    </g>
    <text x="627" y="404" font-size="16">📊</text>
    <text x="651" y="402" font-size="13" font-weight="bold" fill="#37474f">任务排布</text>
    <text x="651" y="418" font-size="10" fill="#78909c">tasks</text>
    <text x="713" y="387" font-size="9" fill="#78909c">输入</text>
    <text x="713" y="408" font-size="11" fill="#37474f">plan.md</text>
    <text x="800" y="404" font-size="14" fill="#90a4ae" text-anchor="middle">→</text>
    <text x="818" y="387" font-size="9" fill="#78909c">职责</text>
    <text x="818" y="406" font-size="12" font-weight="bold" fill="#37474f">任务排布</text>
    <text x="818" y="422" font-size="9.5" fill="#78909c">依赖图 · 波次规划</text>
    <text x="965" y="404" font-size="14" fill="#90a4ae" text-anchor="middle">→</text>
    <text x="983" y="387" font-size="9" fill="#78909c">输出</text>
    <text x="983" y="406" font-size="11" fill="#37474f">tasks.md</text>
    <text x="983" y="422" font-size="10" fill="#546e7a">+ tasks.json</text>
  </g>

  <!-- Row 5 build y=456 -->
  <g>
    <rect x="610" y="456" width="570" height="88" rx="6" fill="#e3f2fd" stroke="#90caf9" stroke-width="1.5" filter="url(#rowShadow)"/>
    <rect x="618" y="464" width="84" height="72" rx="5" fill="#ffffff" fill-opacity="0.55"/>
    <g stroke="#000000" stroke-opacity="0.06">
      <line x1="705" y1="466" x2="705" y2="534"/>
      <line x1="790" y1="466" x2="790" y2="534"/>
      <line x1="810" y1="466" x2="810" y2="534"/>
      <line x1="955" y1="466" x2="955" y2="534"/>
      <line x1="975" y1="466" x2="975" y2="534"/>
      <line x1="1080" y1="466" x2="1080" y2="534"/>
    </g>
    <text x="627" y="500" font-size="16">🔨</text>
    <text x="651" y="498" font-size="13" font-weight="bold" fill="#37474f">实施构建</text>
    <text x="651" y="514" font-size="10" fill="#78909c">build</text>
    <text x="713" y="483" font-size="9" fill="#78909c">输入</text>
    <text x="713" y="504" font-size="11" fill="#37474f">tasks.json</text>
    <text x="800" y="500" font-size="14" fill="#90a4ae" text-anchor="middle">→</text>
    <text x="818" y="483" font-size="9" fill="#78909c">职责</text>
    <text x="818" y="502" font-size="12" font-weight="bold" fill="#37474f">实施构建</text>
    <text x="818" y="518" font-size="9.5" fill="#78909c">代码/配置 · 实现决策</text>
    <text x="965" y="500" font-size="14" fill="#90a4ae" text-anchor="middle">→</text>
    <text x="983" y="483" font-size="9" fill="#78909c">输出</text>
    <text x="983" y="502" font-size="11" fill="#37474f">产物</text>
    <text x="983" y="518" font-size="10" fill="#546e7a">+ build.md</text>
  </g>

  <!-- Row 6 review y=552 (GREEN autonomous) -->
  <g>
    <rect x="610" y="552" width="570" height="88" rx="6" fill="#e8f5e9" stroke="#a5d6a7" stroke-width="1.5" filter="url(#rowShadow)"/>
    <rect x="618" y="560" width="84" height="72" rx="5" fill="#ffffff" fill-opacity="0.55"/>
    <g stroke="#000000" stroke-opacity="0.06">
      <line x1="705" y1="562" x2="705" y2="630"/>
      <line x1="790" y1="562" x2="790" y2="630"/>
      <line x1="810" y1="562" x2="810" y2="630"/>
      <line x1="955" y1="562" x2="955" y2="630"/>
      <line x1="975" y1="562" x2="975" y2="630"/>
      <line x1="1080" y1="562" x2="1080" y2="630"/>
    </g>
    <text x="627" y="596" font-size="16">🔎</text>
    <text x="651" y="594" font-size="13" font-weight="bold" fill="#37474f">产物审查</text>
    <text x="651" y="610" font-size="10" fill="#78909c">review</text>
    <text x="713" y="579" font-size="9" fill="#78909c">输入</text>
    <text x="713" y="600" font-size="9.5" fill="#37474f">spec+plan+产物</text>
    <text x="800" y="596" font-size="14" fill="#90a4ae" text-anchor="middle">→</text>
    <text x="818" y="579" font-size="9" fill="#78909c">职责</text>
    <text x="818" y="598" font-size="12" font-weight="bold" fill="#2e7d32">自主审查</text>
    <text x="818" y="614" font-size="9.5" fill="#78909c">定义 C1~CN · 逆向静态分析</text>
    <text x="965" y="596" font-size="14" fill="#90a4ae" text-anchor="middle">→</text>
    <text x="983" y="579" font-size="9" fill="#78909c">输出</text>
    <text x="983" y="598" font-size="11" fill="#37474f">review.md</text>
    <text x="983" y="614" font-size="9.5" fill="#78909c">策略段 + 结果段</text>
    <rect x="1097" y="585" width="36" height="22" rx="11" fill="#43a047" filter="url(#badgeShadow)"/>
    <text x="1115" y="600" font-size="10" font-weight="bold" fill="#ffffff" text-anchor="middle">自主</text>
  </g>

  <!-- Row 7 validate y=648 (GREEN autonomous) -->
  <g>
    <rect x="610" y="648" width="570" height="88" rx="6" fill="#e8f5e9" stroke="#a5d6a7" stroke-width="1.5" filter="url(#rowShadow)"/>
    <rect x="618" y="656" width="84" height="72" rx="5" fill="#ffffff" fill-opacity="0.55"/>
    <g stroke="#000000" stroke-opacity="0.06">
      <line x1="705" y1="658" x2="705" y2="726"/>
      <line x1="790" y1="658" x2="790" y2="726"/>
      <line x1="810" y1="658" x2="810" y2="726"/>
      <line x1="955" y1="658" x2="955" y2="726"/>
      <line x1="975" y1="658" x2="975" y2="726"/>
      <line x1="1080" y1="658" x2="1080" y2="726"/>
    </g>
    <text x="627" y="692" font-size="16">✅</text>
    <text x="651" y="690" font-size="13" font-weight="bold" fill="#37474f">产物验证</text>
    <text x="651" y="706" font-size="10" fill="#78909c">validate</text>
    <text x="713" y="675" font-size="9" fill="#78909c">输入</text>
    <text x="713" y="696" font-size="10" fill="#37474f">spec+NFR+产物</text>
    <text x="713" y="712" font-size="9" fill="#78909c">（plan 作上下文）</text>
    <text x="800" y="692" font-size="14" fill="#90a4ae" text-anchor="middle">→</text>
    <text x="818" y="675" font-size="9" fill="#78909c">职责</text>
    <text x="818" y="694" font-size="12" font-weight="bold" fill="#2e7d32">自主验证</text>
    <text x="818" y="710" font-size="9.5" fill="#78909c">定义 V1~VN · 编写执行脚本</text>
    <text x="965" y="692" font-size="14" fill="#90a4ae" text-anchor="middle">→</text>
    <text x="983" y="675" font-size="9" fill="#78909c">输出</text>
    <text x="983" y="694" font-size="11" fill="#37474f">validate.md</text>
    <text x="983" y="710" font-size="9.5" fill="#78909c">策略段 + 结果段</text>
    <rect x="1097" y="681" width="36" height="22" rx="11" fill="#43a047" filter="url(#badgeShadow)"/>
    <text x="1115" y="696" font-size="10" font-weight="bold" fill="#ffffff" text-anchor="middle">自主</text>
  </g>

  <!-- ============ Red dashed dependency arrows (LEFT only) ============ -->
  <g>
    <line x1="290" y1="352" x2="290" y2="552" stroke="#e53935" stroke-width="2" stroke-dasharray="7 4" marker-end="url(#redArrow)"/>
    <line x1="310" y1="352" x2="310" y2="648" stroke="#e53935" stroke-width="2" stroke-dasharray="7 4" marker-end="url(#redArrow)"/>
    <text x="300" y="460" font-size="11" font-weight="bold" fill="#e53935" text-anchor="middle" transform="rotate(-90 300 460)">代笔策略 → 被动消费</text>
  </g>

  <!-- ============ Center circle ============ -->
  <circle cx="600" cy="410" r="28" fill="#ffffff" stroke="#90a4ae" stroke-width="2.5"/>
  <text x="600" y="410" font-size="22" font-weight="bold" fill="#607d8b" text-anchor="middle" dy="0.32em">→</text>

  <!-- ============ Legend ============ -->
  <rect x="20" y="740" width="1160" height="50" rx="8" fill="#f7f9fb" stroke="#d5dbe0" stroke-width="1.5"/>
  <g font-size="8.5" fill="#546e7a" text-anchor="middle">
    <text x="140" y="768">🔵 蓝色 = 未变更（问题挖掘/需求定义/任务排布/实施构建）</text>
    <text x="365" y="768">🔴 红色 = 越界代笔（技术设计 改造前）</text>
    <text x="590" y="768">⬜ 灰色 = 被动消费（产物审查/产物验证 改造前）</text>
    <text x="815" y="768">🟠 橙色 = 入口依赖（产物审查/产物验证 改造前）</text>
    <text x="1040" y="768">🟢 绿色 = 职责回归 / 自主策略（技术设计/产物审查/产物验证 改造后）</text>
  </g>
</svg>
